# xmcd
#
# Track frame offsets: 
#        150
#        17399
#        35403
#        47100
#        60901
#        73173
#        83085
#        95670
#        108544
#        123949
#        137555
#        149326
#        166012
#        180362
#        190953
#        205030
#        218269
#        231182
#        248147
#
# Disc length: 3566 seconds
#
# Revision: 1
# Processed by: cddbd v1.5.2PL0 Copyright (c) Steve Scherf et al.
# Submitted via: ExactAudioCopyFreeDBPlugin 1.0
#
DISCID=f80dec13
DTITLE=Various Artist - Always On My Mind - The Romantic Side Of Country CD3 
DTITLE=Lady
DYEAR=2006
DGENRE=Country
TTITLE0=Kenny Rogers - Lady
TTITLE1=Bobby Goldsboro - Honey
TTITLE2=Marty Robbins - Among My Souvenirs
TTITLE3=George Jones - A Good Year For The Roses
TTITLE4=Hank Williams - Your Cheetin' Heart
TTITLE5=Eddy Arnold - I Wanna Play House With You
TTITLE6=Jim Reeves - I Love You Because
TTITLE7=Don Gibson - I Can't Stop Loving You
TTITLE8=Kris Kristofferson - For The Good Times
TTITLE9=Glen Campbell - Honey Come Back
TTITLE10=Merle Haggard - Carolyn
TTITLE11=Don Williams - Fever
TTITLE12=Statler Brothers - If I Said You Had A Beautiful Body
TTITLE13=Statler Brothers - Flowers On The Wall
TTITLE14=Merle Haggard - Always Wanting You
TTITLE15=Hal Ketchum - Stay Forever
TTITLE16=Don Williams - You Love Me Through It All
TTITLE17=Vince Gill - Don't Let Your Love Start Slipping Away
TTITLE18=Tim McGraw - A Place In The Sun
EXTD=YEAR: 2006
EXTT0=
EXTT1=
EXTT2=
EXTT3=
EXTT4=
EXTT5=
EXTT6=
EXTT7=
EXTT8=
EXTT9=
EXTT10=
EXTT11=
EXTT12=
EXTT13=
EXTT14=
EXTT15=
EXTT16=
EXTT17=
EXTT18=
PLAYORDER=
